<mxfile host="app.diagrams.net" agent="Mozilla/5.0 (X11; Linux x86_64; rv:138.0) Gecko/20100101 Firefox/138.0" version="27.1.1">
  <diagram name="Page-1" id="HRGJyEPGa_MsWdXGEaco">
    <mxGraphModel dx="1187" dy="668" grid="1" gridSize="10" guides="1" tooltips="1" connect="1" arrows="1" fold="1" page="1" pageScale="1" pageWidth="850" pageHeight="1100" math="0" shadow="0">
      <root>
        <mxCell id="0" />
        <mxCell id="1" parent="0" />
        <mxCell id="yIRdzj23Edwq_WL7bTfc-16" value="&lt;font style=&quot;font-size: 15px;&quot;&gt;Map Generation&lt;/font&gt;" style="swimlane;whiteSpace=wrap;html=1;" parent="1" vertex="1">
          <mxGeometry x="140" y="400" width="380" height="410" as="geometry" />
        </mxCell>
        <mxCell id="yIRdzj23Edwq_WL7bTfc-18" value="&lt;div&gt;&lt;font style=&quot;font-size: 15px;&quot;&gt;Graham scan&lt;/font&gt;&lt;/div&gt;connect corners using convex angle" style="rounded=1;whiteSpace=wrap;html=1;" parent="yIRdzj23Edwq_WL7bTfc-16" vertex="1">
          <mxGeometry x="10" y="130" width="210" height="40" as="geometry" />
        </mxCell>
        <mxCell id="yIRdzj23Edwq_WL7bTfc-21" value="" style="endArrow=classic;html=1;rounded=0;exitX=0;exitY=1;exitDx=0;exitDy=0;entryX=0.5;entryY=0;entryDx=0;entryDy=0;" parent="yIRdzj23Edwq_WL7bTfc-16" source="PO3RijeszYsRJZFEl7BE-1" target="yIRdzj23Edwq_WL7bTfc-18" edge="1">
          <mxGeometry width="50" height="50" relative="1" as="geometry">
            <mxPoint x="157.5" y="120" as="sourcePoint" />
            <mxPoint x="160" y="160" as="targetPoint" />
          </mxGeometry>
        </mxCell>
        <mxCell id="yIRdzj23Edwq_WL7bTfc-24" value="" style="endArrow=classic;html=1;rounded=0;exitX=0.5;exitY=1;exitDx=0;exitDy=0;entryX=0.5;entryY=0;entryDx=0;entryDy=0;entryPerimeter=0;" parent="yIRdzj23Edwq_WL7bTfc-16" source="yIRdzj23Edwq_WL7bTfc-18" target="PO3RijeszYsRJZFEl7BE-3" edge="1">
          <mxGeometry width="50" height="50" relative="1" as="geometry">
            <mxPoint x="250" y="10" as="sourcePoint" />
            <mxPoint x="190" y="230" as="targetPoint" />
          </mxGeometry>
        </mxCell>
        <mxCell id="yIRdzj23Edwq_WL7bTfc-29" value="" style="curved=1;endArrow=classic;html=1;rounded=0;entryX=1;entryY=1;entryDx=0;entryDy=0;exitX=0.815;exitY=0.292;exitDx=0;exitDy=0;exitPerimeter=0;" parent="yIRdzj23Edwq_WL7bTfc-16" source="PO3RijeszYsRJZFEl7BE-3" target="PO3RijeszYsRJZFEl7BE-1" edge="1">
          <mxGeometry width="50" height="50" relative="1" as="geometry">
            <mxPoint x="231" y="260" as="sourcePoint" />
            <mxPoint x="258.0799999999999" y="120.99000000000001" as="targetPoint" />
            <Array as="points">
              <mxPoint x="300" y="220" />
              <mxPoint x="320" y="170" />
            </Array>
          </mxGeometry>
        </mxCell>
        <mxCell id="yIRdzj23Edwq_WL7bTfc-31" value="&lt;div&gt;&lt;font style=&quot;font-size: 14px;&quot;&gt;YES&lt;/font&gt;&lt;/div&gt;&lt;div&gt;Recursive algortihm to create holes&lt;/div&gt;&lt;div&gt;add result to outside field&lt;/div&gt;&lt;div&gt;2D array&lt;/div&gt;" style="edgeLabel;html=1;align=center;verticalAlign=middle;resizable=0;points=[];" parent="yIRdzj23Edwq_WL7bTfc-29" vertex="1" connectable="0">
          <mxGeometry x="-0.1304" y="8" relative="1" as="geometry">
            <mxPoint x="-16" y="10" as="offset" />
          </mxGeometry>
        </mxCell>
        <mxCell id="PO3RijeszYsRJZFEl7BE-1" value="&lt;font style=&quot;font-size: 15px;&quot;&gt;Number of corners&lt;/font&gt;" style="ellipse;whiteSpace=wrap;html=1;" vertex="1" parent="yIRdzj23Edwq_WL7bTfc-16">
          <mxGeometry x="100" y="30" width="110" height="70" as="geometry" />
        </mxCell>
        <mxCell id="PO3RijeszYsRJZFEl7BE-3" value="&lt;div&gt;&lt;font style=&quot;font-size: 15px;&quot;&gt;Has obstacles&lt;/font&gt;&lt;/div&gt;&lt;div&gt;holes to be added to field&lt;/div&gt;" style="html=1;whiteSpace=wrap;aspect=fixed;shape=isoRectangle;" vertex="1" parent="yIRdzj23Edwq_WL7bTfc-16">
          <mxGeometry x="23.33" y="200" width="200" height="120" as="geometry" />
        </mxCell>
        <mxCell id="yIRdzj23Edwq_WL7bTfc-26" value="" style="endArrow=classic;html=1;rounded=0;exitX=0.495;exitY=1;exitDx=0;exitDy=0;entryX=0.5;entryY=0;entryDx=0;entryDy=0;exitPerimeter=0;" parent="yIRdzj23Edwq_WL7bTfc-16" source="PO3RijeszYsRJZFEl7BE-3" target="PO3RijeszYsRJZFEl7BE-5" edge="1">
          <mxGeometry width="50" height="50" relative="1" as="geometry">
            <mxPoint x="207.5" y="400" as="sourcePoint" />
            <mxPoint x="115" y="340" as="targetPoint" />
          </mxGeometry>
        </mxCell>
        <mxCell id="yIRdzj23Edwq_WL7bTfc-27" value="&lt;font style=&quot;font-size: 14px;&quot;&gt;NO&lt;/font&gt;" style="edgeLabel;html=1;align=center;verticalAlign=middle;resizable=0;points=[];" parent="yIRdzj23Edwq_WL7bTfc-26" vertex="1" connectable="0">
          <mxGeometry x="-0.2" y="1" relative="1" as="geometry">
            <mxPoint as="offset" />
          </mxGeometry>
        </mxCell>
        <mxCell id="PO3RijeszYsRJZFEl7BE-5" value="&lt;font style=&quot;font-size: 15px;&quot;&gt;Save map&lt;/font&gt;" style="ellipse;whiteSpace=wrap;html=1;" vertex="1" parent="yIRdzj23Edwq_WL7bTfc-16">
          <mxGeometry x="86.83" y="350" width="73" height="50" as="geometry" />
        </mxCell>
      </root>
    </mxGraphModel>
  </diagram>
</mxfile>
